<svg xmlns="http://www.w3.org/2000/svg" viewBox="0 0 512 512"><ellipse cx="277.333" cy="234.667" rx="47.839" ry="236.523" transform="rotate(-45 277.333 234.667)" style="fill:#f98b00"/><path d="M317.022 194.978C191.912 69.868 63.168-4.236 29.466 29.466c-33.7 33.702 40.401 162.445 165.512 287.556s253.854 199.212 287.556 165.51c33.7-33.701-40.401-162.443-165.512-287.554zm127.559 206.935c-18.683 18.682-108.707-41.052-201.074-133.42C151.138 176.125 91.405 86.102 110.086 67.42c18.682-18.682 108.707 41.052 201.074 133.42 92.369 92.368 152.102 182.391 133.42 201.074z" style="fill:#ffec6c"/><circle cx="256" cy="256" r="170.667" style="fill:#ffa300"/><ellipse cx="234.667" cy="234.667" rx="152.763" ry="145.823" transform="rotate(-45 234.667 234.667)" style="fill:#ffbe00"/><path d="M406.188 319.031c-.667 0-1.355-.031-2.042-.094-111.188-10.604-199.917-98.958-210.98-210.083a21.334 21.334 0 0 1 42.459-4.229c9.063 90.896 81.625 163.167 172.563 171.833a21.335 21.335 0 0 1-2 42.573z" style="fill:#ffa300"/><path d="M406.188 319.031c-.688 0-1.355-.031-2.063-.094a235.27 235.27 0 0 1-24.375-3.635 21.334 21.334 0 0 1 8.5-41.812 191.097 191.097 0 0 0 19.958 2.968 21.336 21.336 0 0 1-2.02 42.573z" style="fill:#f98b00"/><path d="M389.333 230.448a21.307 21.307 0 0 1-10.125-2.563 236.72 236.72 0 0 1-101.604-108.104 21.327 21.327 0 1 1 38.709-17.916 193.695 193.695 0 0 0 83.187 88.479 21.334 21.334 0 0 1-10.167 40.104zM341.333 416C206.063 416 96 305.948 96 170.667a21.333 21.333 0 1 1 42.667 0c0 111.75 90.916 202.666 202.666 202.666a21.333 21.333 0 1 1 0 42.667z" style="fill:#ffa300"/><path d="M341.333 416a243.899 243.899 0 0 1-93.479-18.448 21.327 21.327 0 1 1 16.25-39.437 201.71 201.71 0 0 0 77.23 15.218 21.333 21.333 0 1 1 0 42.667z" style="fill:#f98b00"/><path d="M194.978 317.022c52.3 52.3 105.144 95.501 151.508 125.826l50.596-50.597c-39.053-21.062-95.857-66.039-153.576-123.758-57.72-57.72-102.695-114.522-123.757-153.575l-50.597 50.596c30.325 46.364 73.525 99.207 125.826 151.508z" style="fill:#ffec6c"/><path d="M117.48 218.417a21.252 21.252 0 0 1-16.98-8.396C82.312 186.198-6.583 65.5 29.458 29.469a21.33 21.33 0 0 1 33.834 25.25c.562 13.208 17.937 59.729 71.125 129.427a21.334 21.334 0 0 1-16.938 34.27zM59.666 59.604c-.021.01-.021.021-.042.031.02-.01.02-.02.042-.03zM373.02 455.677a21.312 21.312 0 0 1-11.103-3.125c-52-31.75-111.292-79.885-166.938-135.531-19.875-19.875-38.667-39.959-55.812-59.667a21.339 21.339 0 0 1 32.208-28c16.5 18.969 34.583 38.313 53.77 57.5 53.334 53.323 109.792 99.24 159.022 129.281a21.337 21.337 0 0 1-11.146 39.542zM458.854 490.667c-13.27 0-29.458-4.24-49.5-12.959a21.338 21.338 0 0 1 17.042-39.125c19.187 8.354 28.854 9.386 32.291 9.417a21.333 21.333 0 0 1 23.771 34.615c-5.396 5.343-13.354 8.052-23.604 8.052zM452.5 452.24c-.02.01-.02.02-.042.041.021-.02.021-.031.042-.041z" style="fill:#ffff9d"/><circle cx="85.333" cy="277.333" r="21.333" style="fill:#d6deff"/><circle cx="384" cy="42.667" r="21.333" style="fill:#d6deff"/><circle cx="480" cy="160" r="10.667" style="fill:#d6deff"/><circle cx="32" cy="416" r="10.667" style="fill:#d6deff"/><circle cx="224" cy="480" r="10.667" style="fill:#d6deff"/><circle cx="426.667" cy="320" r="21.333" style="fill:#d6deff"/><circle cx="96" cy="32" r="10.667" style="fill:#d6deff"/></svg>